name rise32.9588peak41.5061fall63.4684.mot
datacolumns 19
datarows 20
range 13.68495300000000 13.71661400000000
endheader
time	ground_force1_vx	ground_force1_vy	ground_force1_vz	ground_force1_px	ground_force1_py	ground_force1_pz	ground_force2_vx	ground_force2_vy	ground_force2_vz	ground_force2_px	ground_force2_py	ground_force2_pz	ground_torque1_x	ground_torque1_y	ground_torque1_z	ground_torque2_x	ground_torque2_y	ground_torque2_z	
13.68495300000000	-8.70607300000000	45.91811200000000	-8.75404600000000	0.27677200000000	0.00000000000000	0.09501400000000	-34.33658400000000	798.15915199999995	-46.41359600000000	0.09815400000000	0.00000000000000	-0.07002800000000	0.00000000000000	-4.62458100000000	0.00000000000000	0.00000000000000	-10.82305800000000	0.00000000000000	
13.68661400000000	-9.41444000000000	52.65430500000000	-9.61533900000000	0.28070300000000	0.00000000000000	0.09555700000000	-35.12290000000000	795.90808200000004	-46.27032100000000	0.09723700000000	0.00000000000000	-0.06998300000000	0.00000000000000	-5.13581700000000	0.00000000000000	0.00000000000000	-10.80895700000000	0.00000000000000	
13.68828200000000	-9.97318700000000	59.36697000000000	-10.36285900000000	0.28426700000000	0.00000000000000	0.09606200000000	-35.93810800000000	793.53311199999996	-46.11450300000000	0.09631700000000	0.00000000000000	-0.06993700000000	0.00000000000000	-5.59553800000000	0.00000000000000	0.00000000000000	-10.79966500000000	0.00000000000000	
13.68994800000000	-10.36922100000000	65.99051400000000	-10.98305000000000	0.28752100000000	0.00000000000000	0.09653400000000	-36.78142200000000	791.03095099999996	-45.94567500000000	0.09539200000000	0.00000000000000	-0.06989100000000	0.00000000000000	-5.99557000000000	0.00000000000000	0.00000000000000	-10.79512900000000	0.00000000000000	
13.69161400000000	-10.59753500000000	72.48346500000000	-11.46952000000000	0.29050900000000	0.00000000000000	0.09697600000000	-37.65192500000000	788.39828599999998	-45.76336800000000	0.09446500000000	0.00000000000000	-0.06984400000000	0.00000000000000	-6.33154400000000	0.00000000000000	0.00000000000000	-10.79527600000000	0.00000000000000	
13.69328500000000	-10.66051100000000	78.82811700000001	-11.82251800000000	0.29326800000000	0.00000000000000	0.09739200000000	-38.54857700000000	785.63179500000001	-45.56711400000000	0.09353600000000	0.00000000000000	-0.06979600000000	0.00000000000000	-6.60268400000000	0.00000000000000	0.00000000000000	-10.80001300000000	0.00000000000000	
13.69495000000000	-10.56673200000000	85.02827400000000	-12.04795500000000	0.29582900000000	0.00000000000000	0.09778500000000	-39.47020800000000	782.72815600000001	-45.35644400000000	0.09260500000000	0.00000000000000	-0.06974800000000	0.00000000000000	-6.81134200000000	0.00000000000000	0.00000000000000	-10.80922600000000	0.00000000000000	
13.69661600000000	-10.32949700000000	91.10561500000000	-12.15613800000000	0.29821700000000	0.00000000000000	0.09815600000000	-40.41552200000000	779.68406000000004	-45.13089600000000	0.09167300000000	0.00000000000000	-0.06969900000000	0.00000000000000	-6.96234700000000	0.00000000000000	0.00000000000000	-10.82278300000000	0.00000000000000	
13.69828000000000	-9.96520100000000	97.09521100000001	-12.16035300000000	0.30045300000000	0.00000000000000	0.09850800000000	-41.38310000000000	776.49622299999999	-44.89001500000000	0.09074100000000	0.00000000000000	-0.06964900000000	0.00000000000000	-7.06226300000000	0.00000000000000	0.00000000000000	-10.84053100000000	0.00000000000000	
13.69994500000000	-9.49175500000000	103.04072700000000	-12.07546400000000	0.30255500000000	0.00000000000000	0.09884400000000	-42.37139900000000	773.16139699999997	-44.63335500000000	0.08980900000000	0.00000000000000	-0.06959800000000	0.00000000000000	-7.11864100000000	0.00000000000000	0.00000000000000	-10.86229900000000	0.00000000000000	
13.70161900000000	-8.92714500000000	108.98974400000000	-11.91661700000000	0.30453800000000	0.00000000000000	0.09916300000000	-43.37875700000000	769.67638199999999	-44.36048400000000	0.08887900000000	0.00000000000000	-0.06954600000000	0.00000000000000	-7.13931100000000	0.00000000000000	0.00000000000000	-10.88789600000000	0.00000000000000	
13.70328000000000	-8.28824400000000	114.98955599999999	-11.69815100000000	0.30641400000000	0.00000000000000	0.09946700000000	-44.40339300000000	766.03804100000002	-44.07098300000000	0.08795000000000	0.00000000000000	-0.06949300000000	0.00000000000000	-7.13177700000000	0.00000000000000	0.00000000000000	-10.91711100000000	0.00000000000000	
13.70494800000000	-7.58990400000000	121.08369200000000	-11.43275400000000	0.30819400000000	0.00000000000000	0.09975800000000	-45.44341200000000	762.24331099999995	-43.76445500000000	0.08702300000000	0.00000000000000	-0.06943900000000	0.00000000000000	-7.10274300000000	0.00000000000000	0.00000000000000	-10.94971800000000	0.00000000000000	
13.70661300000000	-6.84437200000000	127.30930499999999	-11.13090000000000	0.30988600000000	0.00000000000000	0.10003600000000	-46.49680600000000	758.28921600000001	-43.44052300000000	0.08610000000000	0.00000000000000	-0.06938300000000	0.00000000000000	-7.05777600000000	0.00000000000000	0.00000000000000	-10.98547100000000	0.00000000000000	
13.70828200000000	-6.06099800000000	133.69546800000001	-10.80054000000000	0.31149800000000	0.00000000000000	0.10030300000000	-47.56146400000000	754.17288199999996	-43.09883300000000	0.08518000000000	0.00000000000000	-0.06932600000000	0.00000000000000	-7.00112000000000	0.00000000000000	0.00000000000000	-11.02410600000000	0.00000000000000	
13.70995200000000	-5.24621500000000	140.26235199999999	-10.44705500000000	0.31303700000000	0.00000000000000	0.10055900000000	-48.63516900000000	749.89154699999995	-42.73906000000000	0.08426500000000	0.00000000000000	-0.06926700000000	0.00000000000000	-6.93564300000000	0.00000000000000	0.00000000000000	-11.06534400000000	0.00000000000000	
13.71161900000000	-4.40374500000000	147.02118600000000	-10.07339100000000	0.31450700000000	0.00000000000000	0.10080400000000	-49.71560700000000	745.44258000000002	-42.36090900000000	0.08335400000000	0.00000000000000	-0.06920700000000	0.00000000000000	-6.86289400000000	0.00000000000000	0.00000000000000	-11.10888900000000	0.00000000000000	
13.71328000000000	-3.53496700000000	153.97484900000001	-9.68036900000000	0.31591400000000	0.00000000000000	0.10104000000000	-50.80037300000000	740.82348999999999	-41.96411700000000	0.08244900000000	0.00000000000000	-0.06914500000000	0.00000000000000	-6.78325000000000	0.00000000000000	0.00000000000000	-11.15443000000000	0.00000000000000	
13.71495300000000	-2.63939700000000	161.11895100000001	-9.26708800000000	0.31726000000000	0.00000000000000	0.10126600000000	-51.88697700000000	736.03194099999996	-41.54845800000000	0.08155000000000	0.00000000000000	-0.06908200000000	0.00000000000000	-6.69612800000000	0.00000000000000	0.00000000000000	-11.20164100000000	0.00000000000000	
13.71661400000000	-1.71521400000000	168.44321400000001	-8.83138500000000	0.31855000000000	0.00000000000000	0.10148400000000	-52.97284500000000	731.06577200000004	-41.11374300000000	0.08065800000000	0.00000000000000	-0.06901600000000	0.00000000000000	-6.60022600000000	0.00000000000000	0.00000000000000	-11.25018400000000	0.00000000000000	
